<svg width="584" height="370" viewBox="0 0 584 370" fill="none" xmlns="http://www.w3.org/2000/svg">
<rect width="584" height="370" fill="#F3F4F6"/>
<path d="M113.499 135.527L97.2093 155.185V189.855H70V65.1143H97.2093V124.447H98.2834L116.005 100.321L144.11 65.1143H174.899L132.832 116.405L178.658 189.855H146.616L113.499 135.527Z" fill="#030718"/>
<path d="M260.917 189.855C256.143 189.855 252.145 188.366 248.923 185.388C245.82 182.409 243.851 178.418 243.016 173.414H241.942C240.51 179.49 237.347 184.137 232.454 187.353C227.562 190.451 221.535 192 214.375 192C204.947 192 197.727 189.498 192.715 184.494C187.702 179.49 185.196 172.878 185.196 164.657C185.196 154.768 188.776 147.441 195.937 142.675C203.216 137.791 213.062 135.348 225.473 135.348H240.331V129.451C240.331 124.923 239.137 121.349 236.751 118.728C234.364 115.988 230.366 114.618 224.757 114.618C219.506 114.618 215.329 115.749 212.227 118.013C209.124 120.277 206.558 122.838 204.529 125.698L188.776 111.758C192.595 106.159 197.369 101.81 203.097 98.7122C208.945 95.4954 216.821 93.887 226.726 93.887C240.092 93.887 250.117 96.806 256.8 102.644C263.483 108.482 266.824 117 266.824 128.2V169.304H275.596V189.855H260.917ZM224.22 173.593C228.636 173.593 232.395 172.64 235.498 170.733C238.72 168.827 240.331 165.729 240.331 161.44V150.36H227.442C217.06 150.36 211.868 153.875 211.868 160.904V163.585C211.868 167.04 212.943 169.601 215.091 171.269C217.239 172.818 220.282 173.593 224.22 173.593Z" fill="#030718"/>
<path d="M293.378 189.855V96.0315H319.871V116.405H320.766C321.243 113.784 322.079 111.282 323.272 108.899C324.465 106.397 326.017 104.193 327.926 102.286C329.955 100.38 332.342 98.8909 335.086 97.8186C337.831 96.6272 341.053 96.0315 344.753 96.0315H349.407V120.694H342.784C335.027 120.694 329.239 121.707 325.42 123.732C321.721 125.757 319.871 129.51 319.871 134.991V189.855H293.378Z" fill="#030718"/>
<path d="M378.997 86.0236C373.626 86.0236 369.688 84.8322 367.182 82.4494C364.795 79.9474 363.602 76.7902 363.602 72.9777V69.046C363.602 65.2335 364.795 62.1358 367.182 59.753C369.688 57.251 373.626 56 378.997 56C384.367 56 388.246 57.251 390.632 59.753C393.138 62.1358 394.391 65.2335 394.391 69.046V72.9777C394.391 76.7902 393.138 79.9474 390.632 82.4494C388.246 84.8322 384.367 86.0236 378.997 86.0236ZM365.75 96.0315H392.243V189.855H365.75V96.0315Z" fill="#030718"/>
<path d="M416.97 189.855V96.0315H443.464V116.405H444.359C444.836 113.784 445.671 111.282 446.865 108.899C448.058 106.397 449.61 104.193 451.519 102.286C453.548 100.38 455.935 98.8909 458.679 97.8186C461.424 96.6272 464.646 96.0315 468.346 96.0315H473V120.694H466.377C458.62 120.694 452.832 121.707 449.013 123.732C445.313 125.757 443.464 129.51 443.464 134.991V189.855H416.97Z" fill="#030718"/>
<path d="M70 310.862V217.305H96.548V233.165H97.6243C99.2985 228.294 102.228 224.077 106.414 220.513C110.599 216.948 116.399 215.166 123.814 215.166C133.5 215.166 140.795 218.374 145.698 224.789C150.72 231.205 153.232 240.352 153.232 252.233V310.862H126.684V254.371C126.684 248.312 125.727 243.857 123.814 241.006C121.9 238.036 118.492 236.551 113.589 236.551C111.436 236.551 109.344 236.848 107.311 237.442C105.278 237.917 103.424 238.749 101.75 239.937C100.195 241.125 98.9398 242.61 97.9831 244.392C97.0264 246.055 96.548 248.015 96.548 250.272V310.862H70Z" fill="#030718"/>
<path d="M215.064 313C208.128 313 201.91 311.871 196.409 309.614C191.027 307.357 186.423 304.09 182.597 299.813C178.889 295.536 176.019 290.368 173.986 284.309C171.953 278.25 170.937 271.479 170.937 263.994C170.937 256.51 171.953 249.738 173.986 243.679C176.019 237.62 178.889 232.512 182.597 228.353C186.423 224.077 191.027 220.81 196.409 218.552C201.91 216.295 208.128 215.166 215.064 215.166C222 215.166 228.159 216.295 233.54 218.552C239.041 220.81 243.645 224.077 247.352 228.353C251.179 232.512 254.109 237.62 256.142 243.679C258.175 249.738 259.191 256.51 259.191 263.994C259.191 271.479 258.175 278.25 256.142 284.309C254.109 290.368 251.179 295.536 247.352 299.813C243.645 304.09 239.041 307.357 233.54 309.614C228.159 311.871 222 313 215.064 313ZM215.064 292.15C220.326 292.15 224.392 290.546 227.262 287.339C230.132 284.131 231.567 279.557 231.567 273.617V254.549C231.567 248.609 230.132 244.035 227.262 240.828C224.392 237.62 220.326 236.016 215.064 236.016C209.802 236.016 205.736 237.62 202.866 240.828C199.996 244.035 198.561 248.609 198.561 254.549V273.617C198.561 279.557 199.996 284.131 202.866 287.339C205.736 290.546 209.802 292.15 215.064 292.15Z" fill="#030718"/>
<path d="M310.062 310.862C300.854 310.862 293.858 308.545 289.075 303.912C284.411 299.278 282.079 292.507 282.079 283.596V237.798H268.805V217.305H275.442C279.029 217.305 281.481 216.473 282.796 214.81C284.112 213.028 284.77 210.533 284.77 207.325V192H308.627V217.305H327.282V237.798H308.627V290.368H325.847V310.862H310.062Z" fill="#030718"/>
<path d="M384.308 313C377.133 313 370.735 311.871 365.114 309.614C359.494 307.238 354.71 303.971 350.764 299.813C346.937 295.536 344.007 290.368 341.975 284.309C340.061 278.25 339.104 271.479 339.104 263.994C339.104 256.628 340.061 249.975 341.975 244.035C343.888 237.976 346.698 232.809 350.405 228.532C354.232 224.255 358.896 220.988 364.397 218.73C369.898 216.354 376.176 215.166 383.232 215.166C391.005 215.166 397.642 216.473 403.143 219.087C408.763 221.701 413.307 225.205 416.775 229.601C420.363 233.997 422.934 239.105 424.489 244.926C426.163 250.629 427 256.628 427 262.925V270.766H366.549V272.191C366.549 278.369 368.224 283.299 371.572 286.982C374.92 290.546 380.182 292.328 387.357 292.328C392.858 292.328 397.343 291.259 400.811 289.121C404.279 286.864 407.508 284.19 410.497 281.102L423.771 297.496C419.586 302.367 414.085 306.169 407.268 308.901C400.572 311.634 392.918 313 384.308 313ZM383.77 234.591C378.388 234.591 374.143 236.373 371.034 239.937C368.044 243.382 366.549 248.015 366.549 253.837V255.262H399.555V253.658C399.555 247.956 398.24 243.382 395.609 239.937C393.097 236.373 389.151 234.591 383.77 234.591Z" fill="#030718"/>
<rect x="450" y="292" width="64" height="21" fill="#030718"/>
<path fill-rule="evenodd" clip-rule="evenodd" d="M493 56H419V77H493V150H514V77V56H493Z" fill="#030718"/>
</svg>
