<svg width="880" height="226" viewBox="0 0 880 226" fill="none" xmlns="http://www.w3.org/2000/svg">
<rect width="880" height="226" fill="#F3F4F6"/>
<path d="M77.4991 125.527L61.2093 145.185V179.855H34V55.1143H61.2093V114.447H62.2834L80.0052 90.3206L108.11 55.1143H138.899L96.832 106.405L142.658 179.855H110.616L77.4991 125.527Z" fill="#030718"/>
<path d="M224.917 179.855C220.143 179.855 216.145 178.366 212.923 175.388C209.82 172.409 207.851 168.418 207.016 163.414H205.942C204.51 169.49 201.347 174.137 196.454 177.353C191.562 180.451 185.535 182 178.375 182C168.947 182 161.727 179.498 156.715 174.494C151.702 169.49 149.196 162.878 149.196 154.657C149.196 144.768 152.776 137.441 159.937 132.675C167.216 127.791 177.062 125.348 189.473 125.348H204.331V119.451C204.331 114.923 203.137 111.349 200.751 108.728C198.364 105.988 194.366 104.618 188.757 104.618C183.506 104.618 179.329 105.749 176.226 108.013C173.124 110.277 170.558 112.838 168.529 115.698L152.776 101.758C156.595 96.1586 161.369 91.8099 167.097 88.7122C172.945 85.4954 180.821 83.887 190.726 83.887C204.092 83.887 214.117 86.806 220.8 92.6439C227.483 98.4818 230.824 107 230.824 118.2V159.304H239.596V179.855H224.917ZM188.22 163.593C192.636 163.593 196.395 162.64 199.498 160.733C202.72 158.827 204.331 155.729 204.331 151.44V140.36H191.442C181.06 140.36 175.868 143.875 175.868 150.904V153.585C175.868 157.04 176.943 159.601 179.091 161.269C181.239 162.818 184.282 163.593 188.22 163.593Z" fill="#030718"/>
<path d="M257.378 179.855V86.0315H283.871V106.405H284.766C285.243 103.784 286.079 101.282 287.272 98.8988C288.465 96.3968 290.017 94.1927 291.926 92.2865C293.955 90.3802 296.342 88.8909 299.086 87.8187C301.831 86.6272 305.053 86.0315 308.753 86.0315H313.407V110.694H306.784C299.027 110.694 293.239 111.707 289.42 113.732C285.721 115.757 283.871 119.51 283.871 124.991V179.855H257.378Z" fill="#030718"/>
<path d="M342.997 76.0236C337.626 76.0236 333.688 74.8322 331.182 72.4494C328.795 69.9474 327.602 66.7902 327.602 62.9777V59.046C327.602 55.2335 328.795 52.1358 331.182 49.753C333.688 47.251 337.626 46 342.997 46C348.367 46 352.246 47.251 354.632 49.753C357.138 52.1358 358.391 55.2335 358.391 59.046V62.9777C358.391 66.7902 357.138 69.9474 354.632 72.4494C352.246 74.8322 348.367 76.0236 342.997 76.0236ZM329.75 86.0315H356.243V179.855H329.75V86.0315Z" fill="#030718"/>
<path d="M380.97 179.855V86.0315H407.464V106.405H408.359C408.836 103.784 409.671 101.282 410.865 98.8988C412.058 96.3968 413.61 94.1927 415.519 92.2865C417.548 90.3802 419.935 88.8909 422.679 87.8187C425.424 86.6272 428.646 86.0315 432.346 86.0315H437V110.694H430.377C422.62 110.694 416.832 111.707 413.013 113.732C409.313 115.757 407.464 119.51 407.464 124.991V179.855H380.97Z" fill="#030718"/>
<path d="M448 179.862V86.3049H474.548V102.165H475.624C477.299 97.2941 480.228 93.0766 484.414 89.5125C488.599 85.9485 494.399 84.1664 501.814 84.1664C511.5 84.1664 518.795 87.3741 523.698 93.7894C528.72 100.205 531.232 109.352 531.232 121.233V179.862H504.684V123.371C504.684 117.312 503.727 112.857 501.814 110.006C499.9 107.036 496.492 105.551 491.589 105.551C489.436 105.551 487.344 105.848 485.311 106.442C483.278 106.917 481.424 107.749 479.75 108.937C478.195 110.125 476.94 111.61 475.983 113.392C475.026 115.055 474.548 117.015 474.548 119.272V179.862H448Z" fill="#030718"/>
<path d="M593.064 182C586.128 182 579.91 180.871 574.409 178.614C569.027 176.357 564.423 173.09 560.597 168.813C556.889 164.536 554.019 159.368 551.986 153.309C549.953 147.25 548.937 140.479 548.937 132.994C548.937 125.51 549.953 118.738 551.986 112.679C554.019 106.62 556.889 101.512 560.597 97.3535C564.423 93.0766 569.027 89.8095 574.409 87.5523C579.91 85.295 586.128 84.1664 593.064 84.1664C600 84.1664 606.159 85.295 611.54 87.5523C617.041 89.8095 621.645 93.0766 625.352 97.3535C629.179 101.512 632.109 106.62 634.142 112.679C636.175 118.738 637.191 125.51 637.191 132.994C637.191 140.479 636.175 147.25 634.142 153.309C632.109 159.368 629.179 164.536 625.352 168.813C621.645 173.09 617.041 176.357 611.54 178.614C606.159 180.871 600 182 593.064 182ZM593.064 161.15C598.326 161.15 602.392 159.546 605.262 156.339C608.132 153.131 609.567 148.557 609.567 142.617V123.549C609.567 117.609 608.132 113.035 605.262 109.828C602.392 106.62 598.326 105.016 593.064 105.016C587.802 105.016 583.736 106.62 580.866 109.828C577.996 113.035 576.561 117.609 576.561 123.549V142.617C576.561 148.557 577.996 153.131 580.866 156.339C583.736 159.546 587.802 161.15 593.064 161.15Z" fill="#030718"/>
<path d="M688.062 179.862C678.854 179.862 671.858 177.545 667.075 172.912C662.411 168.278 660.079 161.507 660.079 152.596V106.798H646.805V86.3049H653.442C657.029 86.3049 659.481 85.4732 660.796 83.81C662.112 82.028 662.77 79.5331 662.77 76.3255V61H686.627V86.3049H705.282V106.798H686.627V159.368H703.847V179.862H688.062Z" fill="#030718"/>
<path d="M762.308 182C755.133 182 748.735 180.871 743.114 178.614C737.494 176.238 732.71 172.971 728.764 168.813C724.937 164.536 722.007 159.368 719.975 153.309C718.061 147.25 717.104 140.479 717.104 132.994C717.104 125.628 718.061 118.975 719.975 113.035C721.888 106.976 724.698 101.809 728.405 97.5317C732.232 93.2548 736.896 89.9877 742.397 87.7305C747.898 85.3544 754.176 84.1664 761.232 84.1664C769.005 84.1664 775.642 85.4733 781.143 88.0869C786.763 90.7005 791.307 94.2052 794.775 98.6009C798.363 102.997 800.934 108.105 802.489 113.926C804.163 119.629 805 125.628 805 131.925V139.766H744.549V141.191C744.549 147.369 746.224 152.299 749.572 155.982C752.92 159.546 758.182 161.328 765.357 161.328C770.858 161.328 775.343 160.259 778.811 158.121C782.279 155.864 785.508 153.19 788.497 150.102L801.771 166.496C797.586 171.367 792.085 175.169 785.268 177.901C778.572 180.634 770.918 182 762.308 182ZM761.77 103.591C756.388 103.591 752.143 105.373 749.034 108.937C746.044 112.382 744.549 117.015 744.549 122.837V124.262H777.555V122.658C777.555 116.956 776.24 112.382 773.609 108.937C771.097 105.373 767.151 103.591 761.77 103.591Z" fill="#030718"/>
<path fill-rule="evenodd" clip-rule="evenodd" d="M825 45H751V66H825V139H846V66V45H825Z" fill="#030718"/>
</svg>
