<svg width="444" height="257" viewBox="0 0 444 257" fill="none" xmlns="http://www.w3.org/2000/svg">
<path d="M43.4991 79.5269L27.2093 99.1853V133.855H0V9.11432H27.2093V68.4468H28.2834L46.0052 44.3206L74.1095 9.11432H104.899L62.832 60.4047L108.658 133.855H76.6157L43.4991 79.5269Z" fill="#030718"/>
<path d="M190.917 133.855C186.143 133.855 182.145 132.366 178.923 129.388C175.82 126.409 173.851 122.418 173.016 117.414H171.942C170.51 123.49 167.347 128.137 162.454 131.353C157.562 134.451 151.535 136 144.375 136C134.947 136 127.727 133.498 122.715 128.494C117.702 123.49 115.196 116.878 115.196 108.657C115.196 98.7683 118.776 91.4411 125.937 86.6754C133.216 81.7906 143.062 79.3482 155.473 79.3482H170.331V73.4507C170.331 68.9233 169.137 65.3491 166.751 62.728C164.364 59.9877 160.366 58.6176 154.757 58.6176C149.506 58.6176 145.329 59.7494 142.226 62.0131C139.124 64.2768 136.558 66.8384 134.529 69.6978L118.776 55.7582C122.595 50.1586 127.369 45.8099 133.097 42.7122C138.945 39.4954 146.821 37.887 156.726 37.887C170.092 37.887 180.117 40.806 186.8 46.6439C193.483 52.4818 196.824 61.0004 196.824 72.1997V113.304H205.596V133.855H190.917ZM154.22 117.593C158.636 117.593 162.395 116.64 165.498 114.733C168.72 112.827 170.331 109.729 170.331 105.44V94.36H157.442C147.06 94.36 141.868 97.8747 141.868 104.904V107.585C141.868 111.04 142.943 113.601 145.091 115.269C147.239 116.818 150.282 117.593 154.22 117.593Z" fill="#030718"/>
<path d="M223.378 133.855V40.0315H249.871V60.4047H250.766C251.243 57.7836 252.079 55.2816 253.272 52.8988C254.465 50.3968 256.017 48.1927 257.926 46.2865C259.955 44.3802 262.342 42.8909 265.086 41.8187C267.831 40.6272 271.053 40.0315 274.753 40.0315H279.407V64.6938H272.784C265.027 64.6938 259.239 65.7065 255.42 67.7319C251.721 69.7573 249.871 73.5103 249.871 78.9908V133.855H223.378Z" fill="#030718"/>
<path d="M308.997 30.0236C303.626 30.0236 299.688 28.8322 297.182 26.4494C294.795 23.9474 293.602 20.7902 293.602 16.9777V13.046C293.602 9.23346 294.795 6.13578 297.182 3.75295C299.688 1.25098 303.626 0 308.997 0C314.367 0 318.246 1.25098 320.632 3.75295C323.138 6.13578 324.391 9.23346 324.391 13.046V16.9777C324.391 20.7902 323.138 23.9474 320.632 26.4494C318.246 28.8322 314.367 30.0236 308.997 30.0236ZM295.75 40.0315H322.243V133.855H295.75V40.0315Z" fill="#030718"/>
<path d="M346.97 133.855V40.0315H373.464V60.4047H374.359C374.836 57.7836 375.671 55.2816 376.865 52.8988C378.058 50.3968 379.61 48.1927 381.519 46.2865C383.548 44.3802 385.935 42.8909 388.679 41.8187C391.424 40.6272 394.646 40.0315 398.346 40.0315H403V64.6938H396.377C388.62 64.6938 382.832 65.7065 379.013 67.7319C375.313 69.7573 373.464 73.5103 373.464 78.9908V133.855H346.97Z" fill="#030718"/>
<path d="M0 254.862V161.305H26.548V177.165H27.6243C29.2985 172.294 32.2284 168.077 36.4139 164.513C40.5994 160.948 46.3993 159.166 53.8136 159.166C63.5001 159.166 70.7948 162.374 75.6978 168.789C80.7204 175.205 83.2317 184.352 83.2317 196.233V254.862H56.6837V198.371C56.6837 192.312 55.727 187.857 53.8136 185.006C51.9002 182.036 48.492 180.551 43.589 180.551C41.4365 180.551 39.3437 180.848 37.3108 181.442C35.2778 181.917 33.4242 182.749 31.75 183.937C30.1954 185.125 28.9398 186.61 27.9831 188.392C27.0264 190.055 26.548 192.015 26.548 194.272V254.862H0Z" fill="#030718"/>
<path d="M145.064 257C138.128 257 131.91 255.871 126.409 253.614C121.027 251.357 116.423 248.09 112.597 243.813C108.889 239.536 106.019 234.368 103.986 228.309C101.953 222.25 100.937 215.479 100.937 207.994C100.937 200.51 101.953 193.738 103.986 187.679C106.019 181.62 108.889 176.512 112.597 172.353C116.423 168.077 121.027 164.81 126.409 162.552C131.91 160.295 138.128 159.166 145.064 159.166C152 159.166 158.159 160.295 163.54 162.552C169.041 164.81 173.645 168.077 177.352 172.353C181.179 176.512 184.109 181.62 186.142 187.679C188.175 193.738 189.191 200.51 189.191 207.994C189.191 215.479 188.175 222.25 186.142 228.309C184.109 234.368 181.179 239.536 177.352 243.813C173.645 248.09 169.041 251.357 163.54 253.614C158.159 255.871 152 257 145.064 257ZM145.064 236.15C150.326 236.15 154.392 234.546 157.262 231.339C160.132 228.131 161.567 223.557 161.567 217.617V198.549C161.567 192.609 160.132 188.035 157.262 184.828C154.392 181.62 150.326 180.016 145.064 180.016C139.802 180.016 135.736 181.62 132.866 184.828C129.996 188.035 128.561 192.609 128.561 198.549V217.617C128.561 223.557 129.996 228.131 132.866 231.339C135.736 234.546 139.802 236.15 145.064 236.15Z" fill="#030718"/>
<path d="M240.062 254.862C230.854 254.862 223.858 252.545 219.075 247.912C214.411 243.278 212.079 236.507 212.079 227.596V181.798H198.805V161.305H205.442C209.029 161.305 211.481 160.473 212.796 158.81C214.112 157.028 214.77 154.533 214.77 151.325V136H238.627V161.305H257.282V181.798H238.627V234.368H255.847V254.862H240.062Z" fill="#030718"/>
<path d="M314.308 257C307.133 257 300.735 255.871 295.114 253.614C289.494 251.238 284.71 247.971 280.764 243.813C276.937 239.536 274.007 234.368 271.975 228.309C270.061 222.25 269.104 215.479 269.104 207.994C269.104 200.628 270.061 193.975 271.975 188.035C273.888 181.976 276.698 176.809 280.405 172.532C284.232 168.255 288.896 164.988 294.397 162.73C299.898 160.354 306.176 159.166 313.232 159.166C321.005 159.166 327.642 160.473 333.143 163.087C338.763 165.701 343.307 169.205 346.775 173.601C350.363 177.997 352.934 183.105 354.489 188.926C356.163 194.629 357 200.628 357 206.925V214.766H296.549V216.191C296.549 222.369 298.224 227.299 301.572 230.982C304.92 234.546 310.182 236.328 317.357 236.328C322.858 236.328 327.343 235.259 330.811 233.121C334.279 230.864 337.508 228.19 340.497 225.102L353.771 241.496C349.586 246.367 344.085 250.169 337.268 252.901C330.572 255.634 322.918 257 314.308 257ZM313.77 178.591C308.388 178.591 304.143 180.373 301.034 183.937C298.044 187.382 296.549 192.015 296.549 197.837V199.262H329.555V197.658C329.555 191.956 328.24 187.382 325.609 183.937C323.097 180.373 319.151 178.591 313.77 178.591Z" fill="#030718"/>
<rect x="380" y="236" width="64" height="21" fill="#030718"/>
<path fill-rule="evenodd" clip-rule="evenodd" d="M423 0H349V21H423V94H444V21V0H423Z" fill="#030718"/>
</svg>
