<svg width="812" height="137" viewBox="0 0 812 137" fill="none" xmlns="http://www.w3.org/2000/svg">
<path d="M43.4991 80.5269L27.2093 100.185V134.855H0V10.1143H27.2093V69.4468H28.2834L46.0052 45.3206L74.1095 10.1143H104.899L62.832 61.4047L108.658 134.855H76.6157L43.4991 80.5269Z" fill="#030718"/>
<path d="M190.917 134.855C186.143 134.855 182.145 133.366 178.923 130.388C175.82 127.409 173.851 123.418 173.016 118.414H171.942C170.51 124.49 167.347 129.137 162.454 132.353C157.562 135.451 151.535 137 144.375 137C134.947 137 127.727 134.498 122.715 129.494C117.702 124.49 115.196 117.878 115.196 109.657C115.196 99.7683 118.776 92.4411 125.937 87.6754C133.216 82.7906 143.062 80.3482 155.473 80.3482H170.331V74.4507C170.331 69.9233 169.137 66.3491 166.751 63.728C164.364 60.9877 160.366 59.6176 154.757 59.6176C149.506 59.6176 145.329 60.7494 142.226 63.0131C139.124 65.2768 136.558 67.8384 134.529 70.6978L118.776 56.7582C122.595 51.1586 127.369 46.8099 133.097 43.7122C138.945 40.4954 146.821 38.887 156.726 38.887C170.092 38.887 180.117 41.806 186.8 47.6439C193.483 53.4818 196.824 62.0004 196.824 73.1997V114.304H205.596V134.855H190.917ZM154.22 118.593C158.636 118.593 162.395 117.64 165.498 115.733C168.72 113.827 170.331 110.729 170.331 106.44V95.36H157.442C147.06 95.36 141.868 98.8747 141.868 105.904V108.585C141.868 112.04 142.943 114.601 145.091 116.269C147.239 117.818 150.282 118.593 154.22 118.593Z" fill="#030718"/>
<path d="M223.378 134.855V41.0315H249.871V61.4047H250.766C251.243 58.7836 252.079 56.2816 253.272 53.8988C254.465 51.3968 256.017 49.1927 257.926 47.2865C259.955 45.3802 262.342 43.8909 265.086 42.8187C267.831 41.6272 271.053 41.0315 274.753 41.0315H279.407V65.6938H272.784C265.027 65.6938 259.239 66.7065 255.42 68.7319C251.721 70.7573 249.871 74.5103 249.871 79.9908V134.855H223.378Z" fill="#030718"/>
<path d="M308.997 31.0236C303.626 31.0236 299.688 29.8322 297.182 27.4494C294.795 24.9474 293.602 21.7902 293.602 17.9777V14.046C293.602 10.2335 294.795 7.13578 297.182 4.75295C299.688 2.25098 303.626 1 308.997 1C314.367 1 318.246 2.25098 320.632 4.75295C323.138 7.13578 324.391 10.2335 324.391 14.046V17.9777C324.391 21.7902 323.138 24.9474 320.632 27.4494C318.246 29.8322 314.367 31.0236 308.997 31.0236ZM295.75 41.0315H322.243V134.855H295.75V41.0315Z" fill="#030718"/>
<path d="M346.97 134.855V41.0315H373.464V61.4047H374.359C374.836 58.7836 375.671 56.2816 376.865 53.8988C378.058 51.3968 379.61 49.1927 381.519 47.2865C383.548 45.3802 385.935 43.8909 388.679 42.8187C391.424 41.6272 394.646 41.0315 398.346 41.0315H403V65.6938H396.377C388.62 65.6938 382.832 66.7065 379.013 68.7319C375.313 70.7573 373.464 74.5103 373.464 79.9908V134.855H346.97Z" fill="#030718"/>
<path d="M414 134.862V41.3049H440.548V57.165H441.624C443.299 52.2941 446.228 48.0766 450.414 44.5125C454.599 40.9485 460.399 39.1664 467.814 39.1664C477.5 39.1664 484.795 42.3741 489.698 48.7894C494.72 55.2047 497.232 64.3525 497.232 76.2327V134.862H470.684V78.3711C470.684 72.3122 469.727 67.8571 467.814 65.0059C465.9 62.0358 462.492 60.5508 457.589 60.5508C455.436 60.5508 453.344 60.8478 451.311 61.4418C449.278 61.917 447.424 62.7487 445.75 63.9367C444.195 65.1247 442.94 66.6097 441.983 68.3918C441.026 70.055 440.548 72.0152 440.548 74.2725V134.862H414Z" fill="#030718"/>
<path d="M559.064 137C552.128 137 545.91 135.871 540.409 133.614C535.027 131.357 530.423 128.09 526.597 123.813C522.889 119.536 520.019 114.368 517.986 108.309C515.953 102.25 514.937 95.4786 514.937 87.9941C514.937 80.5096 515.953 73.7379 517.986 67.6789C520.019 61.62 522.889 56.5115 526.597 52.3535C530.423 48.0766 535.027 44.8095 540.409 42.5523C545.91 40.295 552.128 39.1664 559.064 39.1664C566 39.1664 572.159 40.295 577.54 42.5523C583.041 44.8095 587.645 48.0766 591.352 52.3535C595.179 56.5115 598.109 61.62 600.142 67.6789C602.175 73.7379 603.191 80.5096 603.191 87.9941C603.191 95.4786 602.175 102.25 600.142 108.309C598.109 114.368 595.179 119.536 591.352 123.813C587.645 128.09 583.041 131.357 577.54 133.614C572.159 135.871 566 137 559.064 137ZM559.064 116.15C564.326 116.15 568.392 114.546 571.262 111.339C574.132 108.131 575.567 103.557 575.567 97.6171V78.5493C575.567 72.6092 574.132 68.0353 571.262 64.8277C568.392 61.62 564.326 60.0162 559.064 60.0162C553.802 60.0162 549.736 61.62 546.866 64.8277C543.996 68.0353 542.561 72.6092 542.561 78.5493V97.6171C542.561 103.557 543.996 108.131 546.866 111.339C549.736 114.546 553.802 116.15 559.064 116.15Z" fill="#030718"/>
<path d="M654.062 134.862C644.854 134.862 637.858 132.545 633.075 127.912C628.411 123.278 626.079 116.507 626.079 107.596V61.7982H612.805V41.3049H619.442C623.029 41.3049 625.481 40.4732 626.796 38.81C628.112 37.028 628.77 34.5331 628.77 31.3255V16H652.627V41.3049H671.282V61.7982H652.627V114.368H669.847V134.862H654.062Z" fill="#030718"/>
<path d="M728.308 137C721.133 137 714.735 135.871 709.114 133.614C703.494 131.238 698.71 127.971 694.764 123.813C690.937 119.536 688.007 114.368 685.975 108.309C684.061 102.25 683.104 95.4786 683.104 87.9941C683.104 80.6284 684.061 73.9755 685.975 68.0353C687.888 61.9764 690.698 56.8085 694.405 52.5317C698.232 48.2548 702.896 44.9877 708.397 42.7305C713.898 40.3544 720.176 39.1664 727.232 39.1664C735.005 39.1664 741.642 40.4733 747.143 43.0869C752.763 45.7005 757.307 49.2052 760.775 53.6009C764.363 57.9966 766.934 63.1051 768.489 68.9264C770.163 74.6289 771 80.6284 771 86.9249V94.7658H710.549V96.1915C710.549 102.369 712.224 107.299 715.572 110.982C718.92 114.546 724.182 116.328 731.357 116.328C736.858 116.328 741.343 115.259 744.811 113.121C748.279 110.864 751.508 108.19 754.497 105.102L767.771 121.496C763.586 126.367 758.085 130.169 751.268 132.901C744.572 135.634 736.918 137 728.308 137ZM727.77 58.5906C722.388 58.5906 718.143 60.3726 715.034 63.9367C712.044 67.3819 710.549 72.0152 710.549 77.8365V79.2622H743.555V77.6583C743.555 71.9558 742.24 67.3819 739.609 63.9367C737.097 60.3726 733.151 58.5906 727.77 58.5906Z" fill="#030718"/>
<path fill-rule="evenodd" clip-rule="evenodd" d="M791 0H717V21H791V94H812V21V0H791Z" fill="#030718"/>
</svg>
