<?xml version="1.0" standalone="no"?>
<!DOCTYPE svg PUBLIC "-//W3C//DTD SVG 20010904//EN"
 "http://www.w3.org/TR/2001/REC-SVG-20010904/DTD/svg10.dtd">
<svg version="1.0" xmlns="http://www.w3.org/2000/svg"
 width="1168.000000pt" height="1168.000000pt" viewBox="0 0 1168.000000 1168.000000"
 preserveAspectRatio="xMidYMid meet">
<metadata>
Created by potrace 1.14, written by Peter Selinger 2001-2017
</metadata>
<g transform="translate(0.000000,1168.000000) scale(0.100000,-0.100000)"
fill="#000000" stroke="none">
<path d="M7495 8421 c-94 -15 -171 -69 -206 -146 -15 -31 -19 -65 -19 -156 0
-104 2 -120 26 -167 48 -97 125 -134 279 -135 120 -1 186 18 239 69 47 46 62
77 77 158 11 66 7 135 -11 207 -14 51 -80 122 -137 147 -55 23 -174 34 -248
23z"/>
<path d="M8374 8417 c-2 -7 -3 -105 -2 -217 l3 -205 737 -3 738 -2 2 -728 3
-727 215 0 215 0 0 945 0 945 -953 3 c-767 2 -954 0 -958 -11z"/>
<path d="M1390 6990 l0 -1250 23 -5 c12 -3 137 -4 277 -3 l255 3 5 352 5 352
154 186 c85 102 157 185 160 185 3 0 150 -237 326 -527 176 -289 326 -532 333
-540 11 -10 78 -13 327 -13 173 0 316 4 319 8 3 5 -200 336 -450 737 -250 401
-452 735 -450 742 5 11 126 160 623 765 112 136 203 249 203 252 0 3 -141 6
-312 6 l-313 0 -281 -353 c-155 -193 -359 -458 -454 -587 -94 -129 -176 -236
-181 -238 -5 -2 -9 238 -9 587 l0 591 -280 0 -280 0 0 -1250z"/>
<path d="M4390 7664 c-14 -2 -56 -9 -95 -15 -140 -23 -265 -81 -373 -174 -63
-54 -147 -149 -147 -167 0 -6 70 -73 156 -149 l156 -139 85 84 c101 100 156
125 289 133 158 10 256 -32 304 -132 24 -48 29 -73 33 -160 l5 -102 -254 -6
c-276 -6 -356 -18 -493 -73 -243 -97 -356 -262 -356 -519 0 -167 48 -295 149
-396 106 -106 238 -152 436 -152 192 0 325 45 432 145 50 48 123 169 123 204
0 30 18 12 25 -23 11 -59 63 -148 114 -196 75 -70 136 -88 327 -94 89 -3 173
-3 188 1 l26 6 0 210 0 210 -90 0 -90 0 0 464 c0 525 -3 556 -70 692 -48 99
-101 160 -188 218 -136 90 -271 125 -507 131 -88 2 -171 2 -185 -1z m410
-1261 c0 -155 -10 -197 -60 -244 -56 -54 -140 -79 -259 -79 -156 1 -222 48
-234 165 -9 85 7 163 40 198 63 66 140 84 376 86 l137 1 0 -127z"/>
<path d="M5867 7623 c-4 -3 -7 -428 -7 -944 l0 -939 23 -5 c12 -3 132 -4 267
-3 l245 3 5 590 c5 575 6 591 26 635 12 25 35 57 51 73 59 55 209 87 410 87
l103 0 0 255 0 255 -52 0 c-107 -1 -191 -19 -275 -60 -119 -59 -179 -132 -240
-295 l-22 -60 0 208 -1 207 -263 0 c-145 0 -267 -3 -270 -7z"/>
<path d="M7315 7618 c-3 -7 -4 -434 -3 -948 l3 -935 265 0 265 0 0 945 0 945
-263 3 c-205 2 -264 0 -267 -10z"/>
<path d="M8337 7623 c-4 -3 -7 -428 -7 -944 0 -845 2 -937 16 -943 9 -3 127
-6 263 -6 179 0 250 3 259 12 9 9 12 153 12 587 0 366 4 590 10 613 22 78 98
134 215 158 33 7 128 15 210 19 l150 6 3 248 c2 225 1 248 -15 254 -9 4 -65 2
-125 -4 -134 -13 -227 -53 -305 -131 -53 -53 -116 -165 -130 -230 -5 -25 -10
31 -13 163 l-5 200 -266 3 c-146 1 -268 -1 -272 -5z"/>
<path d="M5688 5508 c-3 -169 -7 -209 -21 -235 -28 -52 -67 -67 -189 -71
l-108 -4 0 -209 0 -209 130 0 130 0 0 -467 c0 -500 7 -592 50 -706 24 -63 81
-142 133 -181 49 -38 154 -83 222 -95 32 -6 155 -11 272 -11 l213 0 0 210 0
210 -170 0 -170 0 0 520 0 520 185 0 185 0 0 210 0 210 -185 0 -185 0 -2 253
-3 252 -241 3 -242 2 -4 -202z"/>
<path d="M2308 5224 c-32 -7 -81 -25 -110 -40 -75 -38 -176 -146 -221 -235
l-37 -74 0 163 0 162 -275 0 -275 0 0 -940 c0 -620 3 -940 10 -940 6 0 125 0
265 0 140 0 260 0 265 0 7 0 10 219 10 637 0 618 1 638 20 678 53 109 147 158
305 159 122 1 170 -19 209 -86 49 -87 49 -85 55 -756 l6 -633 265 0 265 0 3
633 c2 413 -1 662 -8 718 -39 302 -183 493 -417 554 -75 20 -255 20 -335 0z"/>
<path d="M4073 5220 c-369 -84 -599 -364 -652 -795 -27 -218 0 -445 75 -632
74 -185 203 -333 361 -416 143 -74 252 -99 443 -99 133 0 168 4 252 25 208 54
358 160 472 331 106 161 166 386 166 626 -1 516 -245 867 -668 960 -117 26
-333 26 -449 0z m346 -426 c68 -20 140 -86 172 -157 23 -50 24 -62 27 -345 4
-325 -1 -370 -51 -453 -56 -94 -134 -131 -274 -130 -67 0 -94 5 -136 24 -69
31 -121 86 -149 156 -22 54 -23 67 -23 366 0 285 2 314 20 365 27 74 105 153
171 174 65 19 178 20 243 0z"/>
<path d="M7460 5225 c-135 -27 -288 -99 -390 -185 -133 -111 -236 -314 -275
-542 -18 -104 -21 -357 -5 -450 32 -191 95 -350 182 -461 180 -229 473 -337
831 -307 190 16 349 64 494 152 53 32 183 143 183 156 0 7 -226 291 -255 321
-11 11 -25 4 -87 -48 -160 -136 -212 -156 -398 -155 -106 1 -134 4 -184 24
-133 51 -215 182 -216 343 l0 47 605 0 605 0 0 103 c0 282 -68 538 -185 698
-108 147 -290 261 -475 299 -112 23 -327 26 -430 5z m355 -412 c96 -51 154
-154 163 -289 l5 -84 -322 0 -321 0 0 48 c0 110 54 232 128 289 62 47 125 64
222 60 62 -2 96 -9 125 -24z"/>
<path d="M8995 3697 c-3 -7 -4 -105 -3 -217 l3 -205 645 0 645 0 0 215 0 215
-643 3 c-516 2 -644 0 -647 -11z"/>
</g>
</svg>
